<?xml version="1.0" encoding="utf-8"?><svg xmlns="http://www.w3.org/2000/svg" xmlns:xlink="http://www.w3.org/1999/xlink"><symbol viewBox="0 0 252.54 153.16" id="gulp" xmlns="http://www.w3.org/2000/svg"><g stroke-miterlimit="10"><path d="M67.53 79.12c-.17.26-.5 1.08-.95 2.45-.46 1.38-1.02 3.1-1.68 5.2-.66 2.07-1.38 4.4-2.14 6.97l-2.37 7.88c-.9 2.68-1.6 5.3-2.4 7.88l-2 6.98-1.5 5.22-.7 2.5c-.3.83-.6 1.75-1.1 2.77-.5 1-1.1 1.97-1.7 2.88-.7.9-1.4 1.67-2.2 2.27-.8.6-1.6.9-2.5.9-1.4 0-2.4-.48-3.1-1.4-.7-.95-1-2.66-1-5.16v-2.26c0-.83.4-2.4 1-4.68.6-2.3 1.3-4.88 2.2-7.76.8-2.9 1.8-5.88 2.7-8.97l2.7-8.4c-2.4 2.6-4.9 5.2-7.6 7.7-2.7 2.6-5.5 4.9-8.3 6.9-2.9 2-5.8 3.7-8.7 5-2.9 1.3-5.7 1.9-8.4 1.9-3.1 0-5.7-.7-7.9-2.1-2.2-1.4-4.1-3.1-5.5-5.3s-2.5-4.7-3.2-7.4C.8 98.5.4 95.7.4 93v-1c0-.3.04-.63.1-.94.24-5 .95-10.1 2.1-15.34 1.2-5.28 2.7-10.5 4.6-15.7 1.9-5.2 4.1-10.3 6.6-15.26C16.4 40 19.1 35.3 22 30.9s6.02-8.5 9.3-12.2c3.3-3.72 6.67-6.92 10.14-9.6 3.46-2.7 6.96-4.8 10.5-6.3 3.5-1.5 7-2.3 10.46-2.3 4 0 7.86 1.1 11.6 3.27C77.7 6 81.2 9.5 84.48 14.4c.74 1.1 1.2 2.2 1.4 3.32.2 1.1.3 2.17.3 3.15 0 2.34-.55 4.2-1.67 5.54-1.1 1.4-2.4 2-4 2-1.4 0-2.7-.7-3.9-2.2-1.2-1.5-2.6-3.6-4-6.3-1.4-2.5-2.9-4.3-4.6-5.4-1.7-1.1-3.5-1.6-5.5-1.6-3.1 0-6.3 1.3-9.8 3.9-3.5 2.6-6.9 5.9-10.3 10.1-3.4 4.2-6.7 9-9.8 14.4-3.1 5.4-5.9 10.9-8.3 16.6-2.4 5.7-4.3 11.2-5.7 16.7-1.4 5.5-2.1 10.4-2.1 14.8 0 1.5.1 3 .3 4.5.2 1.6.6 2.9 1.1 4.2s1.3 2.3 2.3 3.1c1 .8 2.2 1.2 3.6 1.2 1.6 0 3.5-.5 5.5-1.6 2.1-1.1 4.2-2.5 6.4-4.3 2.2-1.8 4.5-3.8 6.7-6s4.4-4.5 6.3-6.8c1.9-2.3 3.7-4.5 5.1-6.6 1.5-2.1 2.6-3.9 3.4-5.5L63 53c.74-1.97 1.7-3.38 2.93-4.2 1.2-.84 2.43-1.26 3.7-1.26.6 0 1.23.1 1.85.3.6.2 1.18.52 1.67.96.5.4.87 1 1.16 1.7.3.7.5 1.5.5 2.5 0 2.5-.2 4.86-.6 7.04-.4 2.2-1 4.3-1.7 6.4-.6 2.05-1.4 4.14-2.2 6.25-.8 2.1-1.6 4.3-2.4 6.6zm83.03 15.28c-1.93 2.6-4.18 5.14-6.74 7.6a67.566 67.566 0 0 1-7.94 6.6c-2.72 1.92-5.4 3.47-8.03 4.64-2.64 1.17-5 1.75-7.1 1.75s-3.83-.7-5.15-2.1c-1.32-1.4-1.98-3.8-1.98-7.2 0-2.4.36-5.2 1.06-8.4-1.14 2-2.57 4.1-4.28 6.1-1.7 2.1-3.67 4-5.86 5.7-2.2 1.7-4.66 3.1-7.38 4.1-2.72 1-5.68 1.6-8.9 1.6-1.43 0-2.83-.2-4.17-.6-1.4-.4-2.6-1-3.6-1.9-1-.9-1.8-2.1-2.5-3.6-.6-1.5-.9-3.4-.9-5.6l.2-2.4c.2-1.5.7-4 1.7-7.3s2.4-7.6 4.4-12.9c2-5.3 4.7-11.6 8.3-19.1.9-2 1.9-3.4 3.2-4.3 1.2-.9 2.5-1.3 3.9-1.3.6 0 1.2.1 1.9.3.6.1 1.2.4 1.8.8.6.4 1 .9 1.4 1.5.3.5.5 1.2.5 2 0 .5-.1 1-.2 1.4-.3.9-.7 2-1.4 3.4l-2.6 4.94c-1 1.8-2 3.8-3.1 5.92-1.1 2.13-2.1 4.4-3 6.62-.9 2.3-1.7 4.65-2.4 7-.7 2.4-1.1 4.7-1.2 6.9 0 1 .2 1.8.6 2.6.4.8 1.2 1.2 2.2 1.2 2.8 0 5.6-.9 8.2-2.8 2.6-1.87 5-4.2 7.2-6.98 2.2-2.8 4.2-5.8 6-9 1.8-3.2 3.2-6.1 4.4-8.74.8-1.77 1.6-3.67 2.2-5.7.6-2 1.3-3.9 2.1-5.6.7-1.7 1.6-3.16 2.6-4.3.9-1.14 2.1-1.7 3.6-1.7s2.8.6 3.7 1.8c.9 1.2 1.4 2.6 1.4 4.3 0 .9-.3 2.2-.9 3.8-.6 1.6-1.3 3.5-2.2 5.6l-2.9 6.77c-1.1 2.4-2 4.8-2.9 7.3-.9 2.45-1.7 4.9-2.3 7.24-.6 2.4-.9 4.6-.9 6.6 0 1.9 1 2.8 2.9 2.8 1.4 0 3.1-.4 5.1-1.4 2-.9 4.1-2.2 6.3-3.9 2.2-1.7 4.4-3.7 6.6-6 2.2-2.3 4.2-4.74 5.9-7.4l.7 10.6z"/><path d="M152.6 90.5c-.48 1.2-.95 2.6-1.4 4.18-.47 1.58-.7 3-.7 4.25 0 .78.13 1.4.4 1.87.26.47.76.7 1.5.7.93 0 2.08-.32 3.47-.97 1.38-.65 2.87-1.5 4.47-2.58 1.6-1.06 3.28-2.28 5-3.66 1.74-1.4 3.47-2.9 5.18-4.3 1.7-1.5 3.34-3 4.9-4.5 1.56-1.5 2.96-2.9 4.2-4.1.34-.4.75-.6 1.24-.8.48-.2.9-.3 1.25-.3.9 0 1.6.3 2.2 1.1.6.7.9 1.7.9 2.9 0 1.1-.3 2.3-.9 3.6-.6 1.3-1.7 2.6-3.2 3.9-2.8 3-5.6 5.9-8.5 8.7-2.8 2.7-5.7 5.2-8.5 7.3-2.8 2.1-5.6 3.7-8.4 5-2.8 1.2-5.5 1.8-8.1 1.8-1.8 0-3.3-.3-4.5-.9-1.2-.6-2.1-1.4-2.9-2.4-.7-1-1.2-2.2-1.5-3.5-.3-1.4-.4-2.8-.4-4.3 0-2.6.3-5.2 1-7.9s1.4-5.2 2.3-7.4c1.6-4.1 3.1-8.1 4.7-12.1l4.4-11L170.6 15c.75-2 1.8-3.42 3.15-4.3 1.36-.8 2.7-1.2 4.07-1.2 1.4 0 2.6.4 3.74 1.3 1.1.86 1.7 2.3 1.7 4.27 0 .93-.2 1.92-.55 2.96-.4 1-.8 2.14-1.4 3.33-1.1 2.42-2.4 5.4-3.9 8.94l-5 11.6c-1.7 4.15-3.5 8.5-5.3 13l-5.4 13.2c-1.8 4.28-3.4 8.3-4.9 12.14l-3.9 9.93z"/><path d="M245.9 76.4c.63-.43 1.2-.77 1.73-1.03.52-.26 1.03-.4 1.5-.4.97 0 1.7.44 2.18 1.3.5.86.8 1.9.8 3.16 0 1.35-.3 2.73-.9 4.13-.6 1.4-1.4 2.58-2.6 3.5-4.7 4.17-8.9 7.97-12.5 11.4-3.7 3.43-7.1 6.38-10.4 8.85-3.3 2.5-6.5 4.4-9.6 5.8-3.1 1.4-6.4 2.1-10 2.1-3.3 0-5.9-.7-7.7-2.2-1.8-1.4-2.7-3.4-2.7-6v-.6c0-.1.1-.4.1-.6.2-1.5.9-3.3 2.1-5.4 1.2-2 2.6-4.1 4.3-6.3s3.5-4.4 5.4-6.6c1.9-2.2 3.6-4.3 5.3-6.3 1.6-2 2.9-3.8 4-5.5 1.1-1.6 1.6-3 1.6-4 0-.6-.2-1.1-.62-1.5-.47-.3-1.2-.5-2.2-.5-1.8 0-3.6.5-5.46 1.4-1.9.9-3.76 2.2-5.6 3.7-1.8 1.6-3.6 3.3-5.32 5.3s-3.3 4.1-4.9 6.2c-1.5 2.2-2.9 4.3-4.2 6.5-1.2 2.2-2.3 4.2-3.2 6l-1.1 2.4-1.5 3.6-1.8 4-1.7 3.9-1.4 3.3c-.4 1-.7 1.6-.9 2-.2.5-.5 1.4-1 2.7l-1.8 4.58-2.1 5.5-2 5.4-1.7 4.58c-.5 1.3-.8 2.18-.9 2.65-.5 1.3-1 2.6-1.6 3.8-.6 1.2-1.25 2.23-2.02 3.14-.76.9-1.64 1.65-2.63 2.2-1 .5-2.1.8-3.3.8-1.6 0-2.9-.4-3.9-1.12-1-.7-1.6-2.2-1.6-4.3 0-1 .1-2.1.4-3.2.2-1.1.6-2.12 1-3.2.3-1.1.8-2.1 1.2-3.1.4-1 .8-2 1.1-2.96 2.3-5.2 4.75-10.4 7.2-15.66s4.8-10.4 7.1-15.5c2.26-5.1 4.35-10.1 6.3-15.1 1.9-4.9 3.5-9.66 4.8-14.2l1.4-3.96c.6-1.7 1.3-3.4 2.1-5s1.7-3.1 2.7-4.3c1-1.2 2.1-1.83 3.2-1.83 1.8 0 3.07.4 3.86 1.2.8.88 1.2 2 1.2 3.6 0 .3-.04.8-.13 1.5-.1.7-.2 1.4-.36 2.15l-.43 2.1c-.1.7-.3 1.2-.4 1.5 1.6-1.76 3.4-3.5 5.28-5.25 1.9-1.73 3.9-3.3 5.9-4.7s4.1-2.6 6.2-3.45c2.1-.9 4.2-1.35 6.3-1.35 1.5 0 2.9.2 4.36.6 1.4.42 2.7 1.03 3.8 1.84 1.17.8 2.08 1.8 2.78 3 .7 1.2 1.05 2.63 1.05 4.24 0 2.13-.56 4.4-1.6 6.8-1.1 2.44-2.4 4.9-4.06 7.3-1.6 2.46-3.37 4.84-5.26 7.15-1.9 2.3-3.6 4.4-5.3 6.3l-4.2 4.9c-1.1 1.3-1.7 2.2-1.72 2.7 0 .6.2 1.1.6 1.5s1.1.6 2 .6c.78 0 1.88-.45 3.3-1.3 1.48-.9 3.5-2.3 6.1-4.36 2.6-2.1 5.96-4.8 9.97-8.3 4-3.46 9-7.8 14.87-13.07z"/></g></symbol><symbol id="pug" viewBox="0 0 128 128" xmlns="http://www.w3.org/2000/svg"><style>.st0{fill:#c1272d}.bst1{fill:#efcca3}.st2{fill:#ed1c24}.bst3{fill:#ccac8d}.bst4{fill:#fff}.st5{fill:#ff931e}.st6{fill:#ffb81e}.bst7{fill:#56332b}.bst8{fill:#442823}.bst9{fill:#7f4a41}.bst10{fill:#331712}.st11{fill:#fc6}.st12{fill:#ccc}.st13{fill:#b3b3b3}.st14{fill:#989898}.st15{fill:#323232}.st16{fill:#1e1e1e}.st17{fill:#4c4c4c}.st18{fill:#e6e6e6}.st19{fill:#606060}</style><path class="bst1" d="M107.4 50.9c-.2-4.4.4-8.3-1.6-11.6-4.8-8.2-16.8-13-40.8-13v.7h-.5.5v-.7c-24 0-36.6 4.8-41.4 13.1-1.9 3.4-1.7 7.2-2 11.6-.2 3.5-1.8 7.2-1.1 11.2.8 5.2 1.1 10.4 1.9 15.2.6 3.9 6 7.2 6.5 10.9 1.4 10.2 12 14.9 36 14.9v.8h-.6.7v-.8c24 0 34.2-4.7 35.5-14.9.5-3.8 5.5-7 6.1-10.9.8-4.8 1.1-10 1.9-15.2.7-4-.9-7.8-1.1-11.3z"/><path class="bst3" d="M64.6 54.5c4.3.1 7.3 2.8 10.1 5.3 3.3 2.9 8.9 4.9 11.2 7.4 2.3 2.5 5.3 5 6.4 8.9 1.1 3.9 1.4 8.9 1.4 10.2 0 1.3.7 1 2.7 0 4.7-2.3 9.9-8.5 9.9-8.5-.6 3.9-5.7 7.4-6.2 11.1C98.9 99.1 89 104 64.5 104h-.1.6"/><path class="bst3" d="M80.4 46.7c.9 3.1 4.1 13.6-2.1 10.1 0 0 2.6 1.5 4.2 7.2 1.7 5.7 5.8 6.4 5.8 6.4s6.7 1.3 11.7-3c4.2-3.6 4.9-10 3.1-14.9-1.8-4.8-5-6.3-9.7-7.3-4.7-1.1-14.1-2-13 1.5z"/><circle cx="92.3" cy="58.1" r="8.8"/><circle class="bst4" cx="90" cy="54.2" r="2.3"/><path class="bst1" d="M78.9 57.7s7.9 5.4 12.2 10.7c4.3 5.3 4.2 6.3 4.2 6.3l-3.1 1.4s-4.4-8.3-9.8-11.4c-5.5-3.1-6.1-5.7-6.1-5.7l2.6-1.3z"/><path class="bst3" d="M64.9 54.5c-4.3.1-7.5 2.8-10.4 5.3-3.3 2.9-9.1 4.9-11.4 7.4-2.3 2.5-5.4 5-6.5 8.9-1.1 3.9-1.5 8.9-1.5 10.2 0 1.3.2 1.4-2.7 0-4.7-2.2-9.9-8.5-9.9-8.5.6 3.9 5.7 7.4 6.2 11.1C30.1 99.1 40 104 64.5 104h.5"/><path class="bst7" d="M88.1 71.4C83.3 65.5 75.6 60 64.9 60h-.1c-10.7 0-18.4 5.5-23.2 11.4-5 6.1-4.6 8.5-4.6 14.3 0 21 7.4 15 12.3 17.6 5 2.5 10.2 1.7 15.5 1.7h.1c5.4 0 10.5.7 15.5-1.8 4.9-2.5 12.3 3.7 12.3-17.3.1-5.8.4-8.4-4.6-14.5z"/><path class="bst8" d="M64.4 65.2s-.7 9.7-2.1 11.6l2.6-.6-.5-11z"/><path class="bst8" d="M65.1 65.2s.7 9.7 2.1 11.6l-2.6-.6.5-11z"/><path class="bst7" d="M56.7 62.9c-1-2.3 2.6-6 8.3-6.1 5.7 0 9.3 3.7 8.3 6.1-1 2.4-4.6 3.1-8.3 3.2-3.6-.1-7.3-.8-8.3-3.2z"/><path d="M65 65.2c0-.4 3.4-.5 5.2-1.7 0 0-3.7 1.2-4.5.7-.8-.4-1-1.6-1-1.6s-.3 1.2-.9 1.6c-.7.4-4.9-.7-4.9-.7s5.6 1.4 5.6 1.7c0 .3-.1 1.3-.1 2 0 2.5 0 8.7.4 9.2.6.9.4-6.7.4-9.2-.1-.8-.1-1.6-.2-2z"/><path class="bst9" d="M65.2 78.6c1.7 0 4.7 1.2 7.4 3.1-2.6-2.9-5.7-4.9-7.4-4.9-1.8 0-5.6 2.2-8.3 5.4 2.8-2.2 6.4-3.6 8.3-3.6z"/><path class="bst8" d="M64.5 96.3c-3.8 0-7.5-1.2-10.9-2.1-.7-.2-1.4.3-2.1.1-6.3-2-11.4-5.4-14.5-9.7v1c0 21 7.4 15.1 12.3 17.6 5 2.5 10.2 1.7 15.5 1.7h.1c5.4 0 10.5.7 15.5-1.8 4.9-2.5 12.3 3.6 12.3-17.4 0-.8 0-1.6.1-2.3-2.9 4.7-8.2 8.4-14.8 10.6-.6.2-2-.3-2.6-.2-3.6 1.2-6.8 2.5-10.9 2.5z"/><path class="bst8" d="M55 85s-2.5 7.5-.8 10.8l-2.3-1s1.7-7.6 3.1-9.8zm19.8 0s2.5 7.5.8 10.8l2.3-1s-1.8-7.6-3.1-9.8z"/><path class="bst3" d="M48.6 46.7c-.9 3.1-4.1 13.6 2.1 10.1 0 0-2.6 1.5-4.2 7.2s-5.8 6.4-5.8 6.4-6.7 1.3-11.7-3c-4.2-3.6-4.9-10-3.1-14.9s5-6.3 9.7-7.3c4.7-1.1 14-2 13 1.5z"/><path d="M64.9 76.8c2.7 0 11.1 5.8 11.2 12.9v-.4c0-7.4-6.8-13.3-11.2-13.3-4.4 0-11.2 6-11.2 13.3v.4c.1-7.1 8.5-12.9 11.2-12.9z"/><ellipse transform="rotate(-14.465 66.712 61.468)" class="bst10" cx="66.7" cy="61.5" rx=".8" ry="1.5"/><ellipse transform="rotate(17.235 62.371 61.462)" class="bst10" cx="62.4" cy="61.5" rx=".8" ry="1.5"/><circle cx="37.2" cy="58.1" r="8.8"/><circle class="bst4" cx="39.5" cy="54.2" r="2.3"/><path class="bst9" d="M67.5 58.2c0-.1-2.3 1-2.9 1.1-.6-.1-2.9-1.2-2.9-1.1h5.8z"/><path class="bst1" d="M50 57.7s-7.9 5.4-12.2 10.7c-4.3 5.3-4.2 6.3-4.2 6.3l3.1 1.4s4.4-8.3 9.8-11.4 6.1-5.7 6.1-5.7L50 57.7z"/><path class="bst3" d="M32.7 41.7S30 49.1 24 52.2c0 0 9.4-1.1 8.7-10.5zm63.1 0s2.7 7.4 8.7 10.5c0 0-9.4-1.1-8.7-10.5zM78.7 55.5s-5.9-6.2-13.8-6.4h.2c-8 .2-13.8 6.4-13.8 6.4 6.9-4.8 12.8-4.7 13.8-4.7-.1 0 6.7-.1 13.6 4.7zm-6.9-13s-3-4.2-7-4.3h.2c-3 .1-6.9 4.3-6.9 4.3 3.4-3.3 6.9-3.2 6.9-3.2s3.3-.1 6.8 3.2zM37.2 73.2s-4.7 2.3-8.1.9H29c-3-1.7-4.5-6.8-4.5-6.8s3 9 12.7 5.9zm54.8 0s4.7 2.3 8.1.9c4-1.7 4.6-6.8 4.6-6.8s-3 9-12.7 5.9z"/><path class="bst3" d="M42.6 41.2c2.6-.5 6.9-.6 10.3.5 4.3 1.5.8 7 1.7 7.3.9.3 2.1-3.8 10.1-3.4 8.1.4 9 4 10.1 3.4s-1.1-10 11-7.8c0 0-12.7-3.4-12.1 5.8 0 0-7.3-5.6-17.5-.6.1 0 2.7-8.6-13.6-5.2zm44.3 0c.2 0 .3.1.4.1.1 0-.1-.1-.4-.1zm0 0zM39.1 28.9S28.3 42.5 26.7 47.7c-1.6 5.3-2.8 27-4.2 30.1l-5-21.4 9.2-22.3 12.4-5.2zm50.8 0s10.8 13.6 12.4 18.8c1.6 5.3 2.8 27 4.2 30.1l5-21.4-9.2-22.3-12.4-5.2z"/><path class="bst7" d="M89.4 28.9s11.6 9.7 15 20.9c3.4 11.2 2 24.8 4.6 26.5 3.7 2.4 7.9-11.9 9.3-13.4 2.2-2.4 9.5-8.5 10-9.6.5-1.1-14.8-17.8-21.5-21.1-8.1-3.8-18.1-4.1-17.4-3.3z"/><path class="bst8" d="M99.3 34.9s13.7 17.5 13.5 39.3l5.5-11.2c-.1 0-4.9-14.3-19-28.1z"/><path class="bst7" d="M39.1 28.9s-11.6 9.7-15 20.9-2 24.8-4.6 26.5c-3.7 2.4-7.9-11.9-9.3-13.4C8 60.5.7 54.4.2 53.3-.3 52.2 15 35.5 21.7 32.2c8.1-3.8 18.1-4.1 17.4-3.3z"/><path class="bst8" d="M29.2 34.9S15.5 52.4 15.7 74.2L10.3 63s4.8-14.3 18.9-28.1z"/><path class="bst3" d="M21.8 74.6s1 5.4 2.6 7.1.5-1.3.5-1.3-1.7-.9-1.4-7.8-1.7 2-1.7 2zm85.3 0s-1 5.4-2.6 7.1-.5-1.3-.5-1.3 1.7-.9 1.4-7.8 1.7 2 1.7 2z"/><circle class="bst8" cx="54.5" cy="70.5" r=".8"/><circle class="bst8" cx="49.9" cy="75.3" r=".8"/><circle class="bst8" cx="48.4" cy="70.5" r=".8"/><g><circle class="bst8" cx="74" cy="70.5" r=".8"/><circle class="bst8" cx="78.6" cy="75.3" r=".8"/><circle class="bst8" cx="80.1" cy="70.5" r=".8"/></g></symbol><symbol viewBox="0 0 512 384" id="sass" xmlns="http://www.w3.org/2000/svg"><path d="M440.6 220.6c-17.9.1-33.4 4.4-46.4 10.8-4.8-9.5-9.6-17.8-10.4-24-.9-7.2-2-11.6-.9-20.2s6.1-20.8 6.1-21.8c-.1-.9-1.1-5.3-11.4-5.4-10.3-.1-19.2 2-20.2 4.7s-3 8.9-4.3 15.3c-1.8 9.4-20.6 42.7-31.3 60.2-3.5-6.8-6.5-12.8-7.1-17.6-.9-7.2-2-11.6-.9-20.2s6.1-20.8 6.1-21.8c-.1-.9-1.1-5.3-11.4-5.4-10.3-.1-19.2 2-20.2 4.7s-2.1 9.1-4.3 15.3c-2.1 6.2-27.1 61.8-33.6 76.3-3.3 7.4-6.2 13.3-8.3 17.3s-.1.3-.3.7c-1.8 3.4-2.8 5.3-2.8 5.3v.1c-1.4 2.5-2.9 4.9-3.6 4.9-.5 0-1.5-6.7.2-15.9 3.7-19.3 12.7-49.4 12.6-50.5 0-.5 1.7-5.8-5.8-8.5-7.3-2.7-9.9 1.8-10.5 1.8-.6 0-1.1 1.6-1.1 1.6s8.1-33.9-15.5-33.9c-14.8 0-35.2 16.1-45.3 30.8-6.4 3.5-20 10.9-34.4 18.8-5.5 3-11.2 6.2-16.6 9.1l-1.1-1.2c-28.6-30.5-81.5-52.1-79.3-93.1.8-14.9 6-54.2 101.6-101.8 78.3-39 141-28.3 151.9-4.5 15.5 34-33.5 97.2-114.9 106.3-31 3.5-47.3-8.5-51.4-13-4.3-4.7-4.9-4.9-6.5-4-2.6 1.4-1 5.6 0 8.1 2.4 6.3 12.4 17.5 29.4 23.1 14.9 4.9 51.3 7.6 95.3-9.4 49.3-19.1 87.8-72.1 76.5-116.4-11.5-45.1-86.3-59.9-157-34.8-42.1 15-87.7 38.4-120.5 69.1C4 117.9-2.2 149.7.4 162.9c9.1 47.1 74 77.8 100 100.5-1.3.7-2.5 1.4-3.6 2-13 6.4-62.5 32.3-74.9 59.7-14 31 2.2 53.3 13 56.3 33.4 9.3 67.6-7.4 86.1-34.9 18.4-27.5 16.2-63.2 7.7-79.5l-.3-.6 10.2-6c6.6-3.9 13.1-7.5 18.8-10.6-3.2 8.7-5.5 19-6.7 34-1.4 17.6 5.8 40.4 15.3 49.4 4.2 3.9 9.2 4 12.3 4 11 0 16-9.1 21.5-20 6.8-13.3 12.8-28.7 12.8-28.7s-7.5 41.7 13 41.7c7.5 0 15-9.7 18.4-14.7v.1s.2-.3.6-1c.8-1.2 1.2-1.9 1.2-1.9v-.2c3-5.2 9.7-17.1 19.7-36.8 12.9-25.4 25.3-57.2 25.3-57.2s1.2 7.8 4.9 20.6c2.2 7.6 7 15.9 10.7 24-3 4.2-4.8 6.6-4.8 6.6l.1.1c-2.4 3.2-5.1 6.6-7.9 10-10.2 12.2-22.4 26.1-24 30.1-1.9 4.7-1.5 8.2 2.2 11 2.7 2 7.5 2.4 12.6 2 9.2-.6 15.6-2.9 18.8-4.3 5-1.8 10.7-4.5 16.2-8.5 10-7.4 16.1-17.9 15.5-31.9-.3-7.7-2.8-15.3-5.9-22.5.9-1.3 1.8-2.6 2.7-4 15.8-23.1 28-48.5 28-48.5s1.2 7.8 4.9 20.6c1.9 6.5 5.7 13.6 9.1 20.6-14.8 12.1-24.1 26.1-27.3 35.3-5.9 17-1.3 24.7 7.4 26.5 3.9.8 9.5-1 13.7-2.8 5.2-1.7 11.5-4.6 17.3-8.9 10-7.4 19.6-17.7 19.1-31.6-.3-6.4-2-12.7-4.3-18.7 12.6-5.2 28.9-8.2 49.6-5.7 44.5 5.2 53.3 33 51.6 44.6-1.7 11.6-11 18-14.1 20-3.1 1.9-4.1 2.6-3.8 4 .4 2.1 1.8 2 4.5 1.6 3.7-.6 23.4-9.5 24.2-30.9 1.2-27.5-24.9-57.5-71.2-57.2zM97.4 336.3c-14.7 16.1-35.4 22.2-44.2 17-9.5-5.5-5.8-29.2 12.3-46.3 11-10.4 25.3-20 34.7-25.9 2.1-1.3 5.3-3.2 9.1-5.5.6-.4 1-.6 1-.6.7-.4 1.5-.9 2.3-1.4 6.7 24.4.3 45.8-15.2 62.7zm107.5-73.1c-5.1 12.5-15.9 44.6-22.4 42.8-5.6-1.5-9-25.8-1.1-49.8 4-12.1 12.5-26.5 17.5-32.1 8.1-9 16.9-12 19.1-8.3 2.6 4.8-9.9 39.6-13.1 47.4zm88.7 42.4c-2.2 1.1-4.2 1.9-5.1 1.3-.7-.4.9-1.9.9-1.9s11.1-11.9 15.5-17.4c2.5-3.2 5.5-6.9 8.7-11.1v1.2c0 14.4-13.8 24-20 27.9zM362 290c-1.6-1.2-1.4-4.9 4-16.5 2.1-4.6 6.9-12.3 15.2-19.6 1 3 1.6 5.9 1.5 8.6-.1 18-12.9 24.7-20.7 27.5z"/></symbol><symbol viewBox="0 0 3046.7 875.7" id="webpack" xmlns="http://www.w3.org/2000/svg"><title>logo-on-dark-bg</title><path d="M387 0l387 218.9v437.9L387 875.7 0 656.8V218.9L387 0z"/><path d="M704.9 641.7L399.8 814.3V679.9l190.1-104.6 115 66.4zm20.9-18.9V261.9l-111.6 64.5v232l111.6 64.4zM67.9 641.7L373 814.3V679.9L182.8 575.3 67.9 641.7zM47 622.8V261.9l111.6 64.5v232L47 622.8zm13.1-384.3L373 61.5v129.9L172.5 301.7l-1.6.9-110.8-64.1zm652.6 0l-312.9-177v129.9l200.5 110.2 1.6.9 110.8-64zM373 649.3L185.4 546.1V341.8L373 450.1v199.2zm26.8 0l187.6-103.1V341.8L399.8 450.1v199.2zM198.1 318.2l188.3-103.5 188.3 103.5-188.3 108.7-188.3-108.7zM1164.3 576.3h82.5l84.1-280.2h-80.4l-49.8 198.8-53.1-198.8H1078l-53.6 198.8-49.3-198.8h-80.4l83.6 280.2h82.5l52-179.5 51.5 179.5zM1335.2 437c0 84.1 57.3 146.3 147.4 146.3 69.7 0 107.2-41.8 117.9-61.6l-48.8-37c-8 11.8-30 34.3-68.1 34.3-41.3 0-71.3-26.8-72.9-64.3H1608c.5-5.4.5-10.7.5-16.1 0-91.6-49.3-149.5-136.1-149.5-79.9 0-137.2 63.2-137.2 147.9zm77.7-30.6c3.2-32.1 25.7-56.8 60.6-56.8 33.8 0 58.4 22.5 60 56.8h-120.6zm223.5 169.9h69.7v-28.9c7.5 9.1 35.4 35.9 83.1 35.9 80.4 0 137.2-60.5 137.2-146.8 0-86.8-52.5-147.3-132.9-147.3-48.2 0-76.1 26.8-83.1 36.4V188.9h-73.9v387.4h-.1zm71.8-139.3c0-52.5 31.1-82.5 71.8-82.5 42.9 0 71.8 33.8 71.8 82.5 0 49.8-30 80.9-71.8 80.9-45 0-71.8-36.5-71.8-80.9zm247 239.5h73.9V547.3c7 9.1 34.8 35.9 83.1 35.9 80.4 0 132.9-60.5 132.9-147.3 0-85.7-56.8-146.8-137.2-146.8-47.7 0-75.6 26.8-83.1 36.4V296h-69.7v380.5h.1zm71.8-241.1c0-44.5 26.8-80.9 71.8-80.9 41.8 0 71.8 31.1 71.8 80.9 0 48.8-28.9 82.5-71.8 82.5-40.7 0-71.8-30-71.8-82.5zm231.5 54.1c0 58.9 48.2 93.8 105 93.8 32.2 0 53.6-9.6 68.1-25.2l4.8 18.2h65.4V398.9c0-62.7-26.8-109.8-116.8-109.8-42.9 0-85.2 16.1-110.4 33.2l27.9 50.4c20.9-10.7 46.6-19.8 74.5-19.8 32.7 0 50.9 16.6 50.9 41.3v18.2c-10.2-7-32.2-15.5-60.6-15.5-65.4-.1-108.8 37.4-108.8 92.6zm73.9-2.2c0-23 19.8-39.1 48.2-39.1s48.8 14.5 48.8 39.1c0 23.6-20.4 38.6-48.2 38.6s-48.8-15.5-48.8-38.6zm348.9 30.6c-46.6 0-79.8-33.8-79.8-81.4 0-45 29.5-82 77.2-82 31.6 0 53.1 15.5 65.4 26.8l20.9-62.2c-18.2-13.9-47.2-30-88.4-30-85.2 0-149 62.7-149 147.9s62.2 146.3 149.5 146.3c40.7 0 71.3-17.1 87.3-30l-19.8-60.5c-12.4 10.1-34.9 25.1-63.3 25.1zm110.9 58.4h73.9V431.6l93.8 144.7h86.8L2940.6 423l98.6-127h-83.1l-90 117.9v-225h-73.9v387.4z"/></symbol></svg>